<svg width="12" height="24" viewBox="0 0 12 24" fill="none" xmlns="http://www.w3.org/2000/svg">
<path d="M2.82075 4.64814C2.82075 5.25294 2.82075 7.95245 2.82075 7.95245H0.399902V11.993H2.82075V24H7.79369V11.9933H11.1308C11.1308 11.9933 11.4433 10.0559 11.5948 7.93755C11.1604 7.93755 7.81249 7.93755 7.81249 7.93755C7.81249 7.93755 7.81249 5.5869 7.81249 5.17488C7.81249 4.76197 8.3547 4.20654 8.89059 4.20654C9.42548 4.20654 10.5544 4.20654 11.6 4.20654C11.6 3.65642 11.6 1.75562 11.6 0.000122085C10.2042 0.000122085 8.61612 0.000122085 7.91611 0.000122085C2.69783 -0.000156911 2.82075 4.04439 2.82075 4.64814Z" fill="#fff"/>
</svg>
