<svg width="60" height="65" viewBox="0 0 44 48" fill="none" xmlns="http://www.w3.org/2000/svg">
<path d="M40.9138 30.1736C40.5442 29.9614 40.1746 29.8264 39.7855 29.7299V18.3473C40.1746 18.2508 40.5831 18.1158 40.9528 17.9035C43.0343 16.6881 43.7347 14.1029 42.5285 12.0386C41.3029 9.97428 38.6961 9.27974 36.6145 10.4759C36.2449 10.6881 35.9142 10.9582 35.6224 11.2669L25.7009 5.55627C25.8176 5.15113 25.8954 4.72669 25.8954 4.28296C25.8954 1.90997 23.9695 0 21.5766 0C19.1838 0 17.2579 1.90997 17.2579 4.28296C17.2579 4.7074 17.3162 5.13183 17.433 5.51769L7.45309 11.2283C7.18073 10.9389 6.86947 10.6881 6.49985 10.4759C4.41828 9.29904 1.792 9.99357 0.585852 12.0386C-0.620291 14.0836 0.0995038 16.7074 2.16162 17.9035C2.53124 18.1158 2.92032 18.2701 3.32886 18.3666V29.7492C2.93978 29.8457 2.57015 30 2.20053 30.1929C0.118958 31.4084 -0.581384 33.9936 0.62476 36.0579C1.792 38.0836 4.41828 38.7781 6.53875 37.6206C6.88893 37.4084 7.21964 37.1576 7.492 36.8682L17.4135 42.5402C17.2968 42.9068 17.2384 43.3119 17.2384 43.717C17.2384 46.09 19.1644 48 21.5572 48C23.95 48 25.8565 46.09 25.876 43.717C25.876 43.254 25.7981 42.8103 25.662 42.4051L35.5057 36.7717C35.7975 37.0997 36.1476 37.3891 36.5562 37.6206C38.6377 38.7974 41.264 38.1029 42.4702 36.0579C43.6958 33.9936 42.9954 31.3698 40.9138 30.1736ZM21.5572 8.58521C22.7633 8.58521 23.8528 8.10289 24.6504 7.2926L34.6302 13.0032C34.319 14.0836 34.4357 15.2605 35.0388 16.3215C35.136 16.4759 35.2333 16.6109 35.3306 16.7653L29.7473 25.4855C28.8719 25.0418 27.8603 24.926 26.8681 25.1383L23.8917 20.508C25.9732 19.2926 26.6736 16.7074 25.4674 14.6431C24.2418 12.5788 21.635 11.8842 19.5534 13.0804C17.4719 14.2958 16.7715 16.881 17.9777 18.9453C18.2889 19.4855 18.7169 19.91 19.1838 20.2572L16.363 24.656C15.3125 24.3859 14.1452 24.5016 13.1142 25.0997L7.78381 16.7846C7.88108 16.6495 7.9978 16.4952 8.07561 16.3408C8.67869 15.2797 8.77596 14.0836 8.46469 13.0032L18.4446 7.27331C19.2422 8.0836 20.3316 8.58521 21.5572 8.58521ZM24.7865 40.8617C23.9889 39.9743 22.8411 39.4341 21.5572 39.4341C20.3121 39.4341 19.1838 39.955 18.4057 40.7846L8.52306 35.1318C8.85377 34.0514 8.7565 32.836 8.13398 31.7556C7.492 30.6945 6.49985 30 5.39097 29.7299V18.3473C5.70224 18.2701 6.0135 18.1543 6.30531 18.0193L11.694 26.4502C10.7992 27.7621 10.7019 29.4984 11.5384 30.9646C12.7251 32.9904 15.3708 33.6849 17.4524 32.5273C19.534 31.3119 20.2343 28.7267 19.0282 26.6624C18.7753 26.2379 18.4446 25.8521 18.0944 25.5627L21.0319 20.9904C21.3432 21.0482 21.6545 21.0675 21.9657 21.0482L25.1173 25.9871C23.4831 27.3183 22.9968 29.5949 24.0862 31.4662C25.2729 33.492 27.9186 34.1865 30.0002 33.0289C32.0818 31.8135 32.7821 29.2283 31.576 27.164C31.4787 27.0096 31.362 26.8553 31.2647 26.701L36.848 17.9807C37.1398 18.1158 37.4316 18.2315 37.7429 18.3087V29.7106C36.634 29.9807 35.6224 30.6752 34.9999 31.7363C34.3579 32.836 34.2606 34.09 34.6302 35.209L24.7865 40.8617Z" fill="#F10ABC"/>
</svg>
