<svg width="26" height="24" viewBox="0 0 26 24" fill="none" xmlns="http://www.w3.org/2000/svg">
<path d="M21.7321 15.4297C21.7341 17.6141 20.1611 19.4958 18.022 19.8658C17.7527 19.912 17.4807 19.9394 17.2074 19.9368C17.1152 19.9358 17.079 19.9727 17.0498 20.0571C16.6227 21.2832 15.7705 22.0141 14.4831 22.1984C13.6314 22.3202 12.8586 22.0919 12.1811 21.5594C12.0867 21.4852 12.029 21.4839 11.9306 21.5543C11.1383 22.121 10.2498 22.372 9.27965 22.3134C7.38648 22.1991 5.79355 20.7521 5.49557 18.8863C5.47507 18.7573 5.45328 18.6274 5.45131 18.4974C5.44934 18.3893 5.4083 18.3476 5.30506 18.3274C4.73189 18.2156 4.21176 17.9796 3.75288 17.6204C2.90837 16.9592 2.40168 16.0958 2.28374 15.0279C2.14925 13.8057 2.52677 12.7488 3.38654 11.8682C3.45586 11.7975 3.46018 11.7483 3.4129 11.6652C3.08237 11.0882 2.9257 10.4632 2.95114 9.80039C3.01459 8.14626 4.16563 6.77965 5.76667 6.4413C5.9519 6.40194 6.04901 6.32931 6.13042 6.15378C6.92011 4.45241 8.24606 3.41768 10.086 3.0764C11.3777 2.83668 12.5962 3.09334 13.7268 3.75838C13.8219 3.81444 13.9015 3.81896 14.0043 3.789C15.8002 3.26796 17.3914 3.64702 18.7423 4.93155C19.5412 5.69101 19.9789 6.65216 20.1085 7.74867C20.1369 7.98839 20.1498 8.23035 20.1316 8.47136C20.1247 8.56251 20.1528 8.60063 20.2391 8.63255C21.0486 8.93221 21.6069 9.49103 21.8511 10.3176C22.1553 11.3457 21.8998 12.2473 21.1315 12.997C21.0649 13.0621 21.079 13.1019 21.1167 13.167C21.5227 13.8665 21.7331 14.6194 21.7321 15.4297ZM13.7191 15.079C13.7197 16.0084 14.3164 16.8299 15.1625 17.109C15.5865 17.249 16.0239 17.3154 16.4678 17.335C16.7848 17.3486 17.1012 17.3265 17.394 17.1805C17.6243 17.0656 17.7328 16.8757 17.7224 16.6227C17.712 16.368 17.5979 16.1775 17.3543 16.0762C17.2696 16.041 17.1837 16.0123 17.0938 15.9967C16.8251 15.9488 16.5551 15.9084 16.2877 15.8554C15.8464 15.7675 15.6614 15.5339 15.6555 15.0877C15.6504 14.693 15.7575 14.3207 15.8789 13.9524C16.1011 13.2783 16.4006 12.6358 16.6876 11.9879C16.9647 11.3624 17.2552 10.7419 17.451 10.083C17.5588 9.72119 17.6102 9.3584 17.5122 8.98419C17.363 8.41621 17.0227 8.03552 16.4358 7.92603C15.8985 7.82605 15.3636 7.81467 14.8777 8.13512C14.7162 8.2413 14.5608 8.21591 14.4205 8.09211C14.3134 7.99799 14.2115 7.89834 14.1066 7.80162C13.6109 7.34403 12.9556 7.32157 12.4235 7.73946C12.2088 7.90813 12.0281 8.11727 11.7949 8.26381C11.5865 8.39471 11.3763 8.43181 11.1456 8.30874C10.9257 8.19147 10.6981 8.08827 10.4711 7.98536C10.2411 7.88149 10.0183 7.75319 9.75946 7.73135C8.94067 7.66165 8.08382 8.14823 7.72262 8.88786C7.56235 9.21517 7.4315 9.5552 7.30742 9.89744C6.7345 11.4796 6.26784 13.0956 5.78486 14.7061C5.56858 15.4269 5.82384 16.1361 6.43416 16.5254C6.91032 16.8288 7.4317 16.9039 7.97146 16.7417C8.40874 16.6101 8.64821 16.2581 8.81558 15.8627C9.37181 14.5509 9.87274 13.2168 10.4029 11.8946C10.5489 11.5307 10.6901 11.1654 10.8449 10.8055C11.0012 10.4421 11.4503 10.3183 11.7167 10.5593C11.8793 10.7064 11.9222 10.9022 11.9063 11.1116C11.8887 11.3354 11.802 11.5418 11.7206 11.7473C11.3757 12.6195 11.0243 13.4891 10.6778 14.3606C10.6078 14.5368 10.5319 14.7117 10.5009 14.9008C10.4479 15.2256 10.5765 15.5135 10.8421 15.6281C11.1132 15.7451 11.3946 15.7646 11.6756 15.6626C12.0025 15.5441 12.198 15.2881 12.3485 14.9924C12.8657 13.9767 13.3789 12.9585 13.8958 11.9428C14.1345 11.4735 14.3774 11.0065 14.6213 10.54C14.712 10.3671 14.8181 10.2033 14.9874 10.0958C15.1403 9.99911 15.3049 9.99191 15.4616 10.0799C15.6145 10.1655 15.6247 10.3219 15.6183 10.4763C15.6148 10.5593 15.5916 10.6404 15.5596 10.7176C15.4926 10.8781 15.43 11.041 15.3557 11.1983C14.9258 12.1027 14.4894 13.0036 14.0634 13.9099C13.8838 14.2924 13.6969 14.6768 13.7191 15.079ZM19.749 21.744C19.75 21.1441 19.2472 20.6425 18.6423 20.6409C18.0226 20.6386 17.5198 21.1346 17.5171 21.7499C17.5145 22.3513 18.0259 22.8616 18.6306 22.8624C19.2439 22.863 19.7481 22.3589 19.749 21.744ZM1.05269 12.551C1.63598 12.5523 2.12678 12.0647 2.12448 11.4867C2.12184 10.9077 1.6415 10.4276 1.0631 10.4259C0.470304 10.4243 -0.00033582 10.8946 1.79796e-07 11.4884C0.00048018 12.0758 0.469728 12.5497 1.05269 12.551ZM14.1138 0.660696C13.5276 0.657432 13.0498 1.12611 13.0465 1.7071C13.0429 2.28747 13.5191 2.7643 14.1024 2.76492C14.6833 2.76526 15.15 2.29985 15.1511 1.71847C15.1524 1.13427 14.6909 0.663624 14.1138 0.660696ZM22.745 7.23786C22.7424 6.75613 22.3317 6.34645 21.8481 6.34318C21.3543 6.33963 20.9361 6.75685 20.9394 7.24957C20.9429 7.74104 21.3416 8.13507 21.836 8.13575C22.3453 8.13675 22.7479 7.73879 22.745 7.23786ZM4.25285 4.66558C4.25285 5.11798 4.60493 5.47294 5.05435 5.47361C5.50958 5.47424 5.86272 5.11736 5.86109 4.65843C5.85946 4.21328 5.50675 3.86508 5.05891 3.86643C4.59835 3.86734 4.25309 4.20963 4.25285 4.66558ZM12.6723 23.3242C12.6762 22.9474 12.3662 22.6371 11.9851 22.6357C11.594 22.6345 11.2868 22.9377 11.2878 23.3236C11.2888 23.7043 11.5944 24.0059 11.9787 24.0059C12.3626 24.0062 12.669 23.7052 12.6723 23.3242ZM23.4231 12.6181C23.057 12.6155 22.7394 12.9331 22.7424 13.2988C22.7455 13.6603 23.0472 13.957 23.4126 13.9577C23.7957 13.9584 24.0829 13.6764 24.0839 13.2979C24.0849 12.9233 23.7908 12.6207 23.4231 12.6181ZM7.34386 -0.00597636C7.0211 -0.00727236 6.77198 0.239256 6.77198 0.560424C6.77198 0.879577 7.0237 1.12774 7.34616 1.12611C7.65912 1.12447 7.90435 0.874969 7.90435 0.558072C7.9044 0.238248 7.66301 -0.00434436 7.34386 -0.00597636ZM24.7004 9.57623C24.4373 9.57325 24.1989 9.80874 24.1956 10.0755C24.192 10.3513 24.4216 10.5809 24.7017 10.5816C24.9798 10.5826 25.198 10.3663 25.2 10.0869C25.2026 9.80586 24.9811 9.57978 24.7004 9.57623ZM4.77782 19.5121C4.77907 19.2451 4.54882 19.0152 4.27757 19.0126C4.00262 19.0103 3.77659 19.2416 3.77856 19.5229C3.78082 19.7978 4.00392 20.015 4.28179 20.0131C4.55443 20.0114 4.77691 19.787 4.77782 19.5121Z" fill="#fff"/>
</svg>
