<svg width="225" height="60" viewBox="0 0 225 60" fill="none" xmlns="http://www.w3.org/2000/svg">
<path fill-rule="evenodd" clip-rule="evenodd" d="M201.835 39.2006L197.871 34.4879C197.706 34.3226 197.624 34.0746 197.624 33.8265V26.4681L198.367 25.724C198.449 25.6413 198.532 25.476 198.532 25.3106V23.409C198.532 23.0783 198.284 22.7476 197.871 22.7476H192.091C191.761 22.7476 191.43 22.9956 191.43 23.409V25.3106C191.43 25.476 191.513 25.6413 191.595 25.724L192.339 26.4681V33.8265C192.339 34.0746 192.256 34.2399 192.091 34.4053L188.292 39.118C188.127 39.2833 188.045 39.5314 188.045 39.6967V45.3189C188.045 45.8976 188.458 46.311 189.036 46.311H200.927C201.505 46.311 201.918 45.8976 201.918 45.3189V39.6967C202.083 39.614 202 39.366 201.835 39.2006ZM196.385 23.4917C196.385 23.2436 196.468 23.0783 196.55 23.0783H197.541C197.624 23.0783 197.706 23.2436 197.706 23.4917V24.3185C197.706 24.5665 197.624 24.7318 197.541 24.7318L196.55 24.3185C196.468 24.3185 196.385 24.1531 196.385 23.9051V23.4917ZM200.927 43.748C200.927 44.244 200.679 44.6574 200.266 44.8228C200.183 45.4016 199.853 45.7323 199.44 45.7323H198.532C198.862 45.5669 198.945 45.2362 198.945 44.9055H190.605C189.944 44.9055 189.448 44.4094 189.448 43.748V39.7794H198.945C198.945 39.4487 198.862 39.0353 198.697 38.7872L197.128 34.8187C196.963 34.488 196.88 33.9092 196.88 33.4958V27.2122C196.88 26.5508 196.963 26.3854 197.293 26.1374L197.376 26.0547H192.752C192.669 26.0547 192.669 26.0547 192.586 25.972L192.174 25.476C192.091 25.3933 192.174 25.2279 192.339 25.2279H197.954C198.119 25.2279 198.202 25.3933 198.119 25.5586L197.624 26.0547L197.211 26.7161V26.8815V33.5785C197.211 34.0746 197.293 34.5706 197.541 34.984L200.101 39.118C200.184 39.366 200.266 39.614 200.349 39.8621H201.009V43.748H200.927ZM194.073 36.7203C194.321 36.7203 194.568 36.9683 194.568 37.2164V38.3738C194.568 38.6219 194.321 38.8699 194.073 38.8699H192.917C192.669 38.8699 192.421 38.6219 192.421 38.3738V37.2164C192.421 36.9683 192.669 36.7203 192.917 36.7203H194.073ZM193.577 32.8344V32.3383C193.577 32.1729 193.66 32.0903 193.825 32.0903H194.321C194.486 32.0903 194.568 32.1729 194.568 32.3383V32.8344C194.568 32.9997 194.486 33.0824 194.321 33.0824H193.825C193.742 33.0824 193.577 32.9997 193.577 32.8344ZM195.311 34.3226H196.137C196.302 34.3226 196.468 34.4879 196.468 34.6533V35.4801C196.468 35.6454 196.302 35.8108 196.137 35.8108H195.311C195.146 35.8108 194.981 35.6454 194.981 35.4801V34.6533C194.899 34.4879 195.064 34.3226 195.311 34.3226ZM195.229 29.1138V28.6178C195.229 28.5351 195.311 28.3697 195.477 28.3697H195.972C196.055 28.3697 196.22 28.4524 196.22 28.6178V29.1138C196.22 29.1965 196.137 29.3619 195.972 29.3619H195.477C195.311 29.3619 195.229 29.2792 195.229 29.1138Z" fill="#29235C"/>
<path d="M195.724 15.8851H194.156C194.156 15.8851 193.825 15.8851 193.577 15.6371L192.999 15.0583C192.752 14.8103 192.752 14.4796 192.752 14.4796V12.9087C192.752 12.4953 192.421 12.1646 192.009 12.1646H190.357C189.944 12.1646 189.614 12.4953 189.614 12.9087V14.5622C189.614 14.9756 189.944 15.3063 190.357 15.3063H191.843C191.843 15.3063 192.174 15.3064 192.421 15.5544L192.999 16.1331C193.247 16.3812 193.247 16.7119 193.247 16.7119V18.2001C193.247 18.6135 193.577 18.9442 193.99 18.9442H195.642C196.055 18.9442 196.385 18.6135 196.385 18.2001V16.5465C196.468 16.2158 196.137 15.8851 195.724 15.8851Z" fill="#29235C"/>
<path d="M181.852 15.3887H183.421C183.421 15.3887 183.751 15.3887 183.999 15.6367L184.577 16.2155C184.824 16.4635 184.824 16.7942 184.824 16.7942V18.3651C184.824 18.7785 185.155 19.1093 185.568 19.1093H187.219C187.632 19.1093 187.962 18.7785 187.962 18.3651V16.7116C187.962 16.2982 187.632 15.9675 187.219 15.9675H185.733C185.733 15.9675 185.402 15.9675 185.155 15.7194L184.577 15.1407C184.329 14.8926 184.329 14.5619 184.329 14.5619V13.0737C184.329 12.6603 183.999 12.3296 183.586 12.3296H181.934C181.521 12.3296 181.191 12.6603 181.191 13.0737V14.7273C181.108 15.058 181.439 15.3887 181.852 15.3887Z" fill="#29235C"/>
<path d="M189.036 17.0428V18.6137C189.036 18.6137 189.036 18.9444 188.788 19.1925L188.21 19.7712C187.963 20.0193 187.632 20.0193 187.632 20.0193H186.063C185.65 20.0193 185.32 20.35 185.32 20.7634V22.417C185.32 22.8304 185.65 23.1611 186.063 23.1611H187.715C188.128 23.1611 188.458 22.8304 188.458 22.417V20.9287C188.458 20.9287 188.458 20.598 188.706 20.35L189.284 19.7712C189.532 19.5232 189.862 19.5232 189.862 19.5232H191.348C191.761 19.5232 192.091 19.1925 192.091 18.7791V17.1255C192.091 16.7121 191.761 16.3814 191.348 16.3814H189.697C189.366 16.2987 189.036 16.6294 189.036 17.0428Z" fill="#29235C"/>
<path d="M143.124 12.9087H147.087V13.7355H145.519V20.0191H144.693V13.7355H143.124V12.9087Z" fill="#29235C"/>
<path d="M147.996 20.0187V12.8257H148.822V13.6525H149.647V14.5619H148.822V20.0187H147.996ZM149.565 16.2155V14.6446H150.391V16.2155H151.216V17.125H150.391V16.2155H149.565ZM151.216 14.6446H152.042V16.2155H151.216V14.6446ZM152.785 20.0187V14.5619H151.96V13.6525H152.785V12.8257H153.611V20.0187H152.785Z" fill="#29235C"/>
<path d="M43.535 20.1846H36.1857H34.6167H24.4597V39.2007H28.8363V24.6492H33.2129V39.2007H37.5895V24.6492H41.9661V39.2007H46.3426V23.161H43.4524V20.1846H43.535ZM59.555 20.1846V23.0783H56.6648V39.2007H61.0414V24.6492H66.1611V20.1846H59.555ZM49.3154 39.2007H53.692V20.1846H49.3154V39.2007Z" fill="#29235C"/>
<path d="M107.037 20.1846H99.6881H98.0365H88.0447V39.2007H92.4213V24.6492H96.7979V39.2007H101.174V24.6492H105.551V39.2007H109.928V23.161H107.037V20.1846Z" fill="#29235C"/>
<path d="M124.461 20.1841H115.79V23.0778H112.818V36.2238H115.708V39.1175H127.103V34.7356H117.194V31.8418H127.351V23.1605H124.461V20.1841ZM117.277 24.5661H123.057V27.5425H117.277V24.5661Z" fill="#29235C"/>
<path d="M141.968 20.1841H133.297V23.0778H130.407V36.2238H133.297V39.1175H144.693V34.7356H134.783V31.8418H144.94V23.1605H142.05V20.1841H141.968ZM134.701 24.5661H140.481V27.5425H134.701V24.5661Z" fill="#29235C"/>
<path d="M53.6915 12.9082H49.3149V17.2902H53.6915V12.9082Z" fill="#29235C"/>
<path d="M80.6949 34.9841H73.4281V20.1846H69.0515V36.3069H71.9417V39.2007H82.0161H85.0715V36.3069V20.1846H80.6949V34.9841Z" fill="#29235C"/>
<path d="M168.474 0.17627H165.749H0.512451V59.1263H165.749H168.474H224.874V0.17627H168.474ZM165.749 56.4805H3.2375V2.98735H165.749V56.4805ZM222.149 56.4805H168.474V2.98735H222.149V56.4805Z" fill="#29235C"/>
</svg>
