<svg width="82" height="30" viewBox="0 0 82 30" fill="none" xmlns="http://www.w3.org/2000/svg">
<path d="M1.95195 0.0893555C2.85286 0.0893555 3.48348 0.689957 3.48348 1.59086C3.48348 2.49176 2.82283 3.09236 1.95195 3.09236H0.900902V4.83411H0V0.0893555H1.95195ZM0.900902 2.28155H1.86186C2.28228 2.28155 2.58258 2.01128 2.58258 1.59086C2.58258 1.17044 2.28228 0.900168 1.86186 0.900168H0.900902V2.28155Z" fill="#29235C"/>
<path d="M5.76592 -0.000488281C6.99715 -0.000488281 7.71787 0.750263 7.71787 1.98149V3.00252C7.71787 4.26378 6.96712 4.9845 5.76592 4.9845C4.53469 4.9845 3.81396 4.26378 3.81396 3.00252V1.98149C3.81396 0.750263 4.56472 -0.000488281 5.76592 -0.000488281ZM4.71487 3.00252C4.71487 3.69321 5.0452 4.14366 5.76592 4.14366C6.51667 4.14366 6.81697 3.66318 6.81697 3.00252V1.92143C6.81697 1.26077 6.42658 0.780293 5.76592 0.780293C5.07523 0.780293 4.71487 1.26077 4.71487 1.92143V3.00252Z" fill="#29235C"/>
<path d="M8.82888 0.0893555L9.39945 3.99326H9.48954L10.2103 0.0893555H11.6217L12.3424 3.99326H12.4325L13.0031 0.0893555H13.904L13.1532 4.86413H11.6817L10.961 0.960228H10.8709L10.1502 4.86413H8.67873L7.92798 0.0893555H8.82888Z" fill="#29235C"/>
<path d="M17.4774 0.0893555V0.900168H15.2551V2.04131H17.2972V2.85212H15.2551V4.02329H17.5374V4.83411H14.3542V0.0893555H17.4774Z" fill="#29235C"/>
<path d="M20.6007 3.00227L21.5616 4.83411H20.5706L19.6998 3.06233H18.8889V4.83411H17.988V0.0893555H20.0901C20.991 0.0893555 21.6217 0.689957 21.6217 1.59086C21.6217 2.31158 21.2013 2.82209 20.6007 3.00227ZM18.8889 2.28155H20.0001C20.4205 2.28155 20.7208 2.01128 20.7208 1.59086C20.7208 1.17044 20.4205 0.900168 20.0001 0.900168H18.8889V2.28155Z" fill="#29235C"/>
<path d="M25.2252 0.0893555V0.900168H23.003V2.04131H25.045V2.85212H23.003V4.02329H25.2852V4.83411H22.1021V0.0893555H25.2252Z" fill="#29235C"/>
<path d="M27.3875 0.0893555C28.6788 0.0893555 29.3394 0.719987 29.3394 2.04131V2.94221C29.3394 4.2335 28.6488 4.89416 27.3875 4.89416H25.7358V0.0893555H27.3875ZM26.6668 4.05332H27.4175C28.1983 4.05332 28.4686 3.66293 28.4686 2.97224V2.01128C28.4686 1.32059 28.1983 0.930198 27.4175 0.930198H26.6668V4.05332Z" fill="#29235C"/>
<path d="M33.9639 0.0893555C34.7747 0.0893555 35.3753 0.539807 35.3753 1.38065C35.3753 1.95122 35.045 2.31158 34.5645 2.4317V2.52179C35.015 2.64191 35.3753 3.00227 35.3753 3.57284C35.3753 4.35362 34.7747 4.86413 33.9639 4.86413H31.8018V0.0893555H33.9639ZM32.7027 2.04131H33.9039C34.2943 2.04131 34.5345 1.86113 34.5345 1.47074C34.5345 1.08035 34.2642 0.900168 33.9039 0.900168H32.7027V2.04131ZM32.7027 4.05332H33.9039C34.2943 4.05332 34.5345 3.87314 34.5345 3.48275C34.5345 3.09236 34.2642 2.88215 33.9039 2.88215H32.7027V4.05332Z" fill="#29235C"/>
<path d="M36.4566 0.0893555L37.5076 2.1314H37.6277L38.6788 0.0893555H39.6998L38.0181 3.24251V4.86413H37.1172V3.24251L35.4355 0.0893555H36.4566Z" fill="#29235C"/>
<path d="M40.2105 1.37939C40.5708 1.37939 40.8711 1.64966 40.8711 2.04005C40.8711 2.43045 40.6009 2.70072 40.2105 2.70072C39.8501 2.70072 39.5498 2.43045 39.5498 2.04005C39.5798 1.64966 39.8501 1.37939 40.2105 1.37939ZM40.2105 3.66168C40.5708 3.66168 40.8711 3.93195 40.8711 4.32234C40.8711 4.71273 40.6009 4.983 40.2105 4.983C39.8501 4.983 39.5498 4.71273 39.5498 4.32234C39.5498 3.93195 39.8501 3.66168 40.2105 3.66168Z" fill="#29235C"/>
<path fill-rule="evenodd" clip-rule="evenodd" d="M73.3333 22.7616L71.8918 21.0499C71.8318 20.9899 71.8017 20.8998 71.8017 20.8097V18.137L72.072 17.8667C72.102 17.8367 72.132 17.7766 72.132 17.7166V17.0259C72.132 16.9058 72.042 16.7856 71.8918 16.7856H69.7897C69.6696 16.7856 69.5495 16.8757 69.5495 17.0259V17.7166C69.5495 17.7766 69.5795 17.8367 69.6095 17.8667L69.8798 18.137V20.8097C69.8798 20.8998 69.8498 20.9598 69.7897 21.0199L68.4083 22.7316C68.3483 22.7917 68.3182 22.8817 68.3182 22.9418V24.9839C68.3182 25.1941 68.4684 25.3442 68.6786 25.3442H73.0029C73.2131 25.3442 73.3633 25.1941 73.3633 24.9839V22.9418C73.4233 22.9118 73.3933 22.8217 73.3333 22.7616ZM71.3513 17.0559C71.3513 16.9658 71.3813 16.9058 71.4113 16.9058H71.7717C71.8017 16.9058 71.8317 16.9658 71.8317 17.0559V17.3562C71.8317 17.4463 71.8017 17.5064 71.7717 17.5064L71.4113 17.3562C71.3813 17.3562 71.3513 17.2962 71.3513 17.2061V17.0559ZM73.0029 24.4133C73.0029 24.5935 72.9128 24.7436 72.7627 24.8037C72.7327 25.0139 72.6125 25.134 72.4624 25.134H72.132C72.2522 25.0739 72.2822 24.9538 72.2822 24.8337H69.2492C69.0089 24.8337 68.8287 24.6535 68.8287 24.4133V22.9718H72.2822C72.2822 22.8517 72.2522 22.7016 72.1921 22.6115L71.6215 21.17C71.5615 21.0499 71.5314 20.8397 71.5314 20.6896V18.4073C71.5314 18.167 71.5615 18.107 71.6816 18.0169L71.7116 17.9868H70.0299C69.9999 17.9868 69.9999 17.9868 69.9699 17.9568L69.8197 17.7766C69.7897 17.7466 69.8197 17.6865 69.8798 17.6865H71.9218C71.9819 17.6865 72.0119 17.7466 71.9819 17.8067L71.8017 17.9868L71.6516 18.2271V18.2871V20.7196C71.6516 20.8998 71.6816 21.0799 71.7717 21.2301L72.7026 22.7316C72.7327 22.8217 72.7627 22.9118 72.7927 23.0019H73.033V24.4133H73.0029ZM70.5104 21.8607C70.6005 21.8607 70.6906 21.9508 70.6906 22.0409V22.4613C70.6906 22.5514 70.6005 22.6415 70.5104 22.6415H70.09C69.9999 22.6415 69.9098 22.5514 69.9098 22.4613V22.0409C69.9098 21.9508 69.9999 21.8607 70.09 21.8607H70.5104ZM70.3302 20.4493V20.2691C70.3302 20.2091 70.3603 20.179 70.4203 20.179H70.6005C70.6606 20.179 70.6906 20.2091 70.6906 20.2691V20.4493C70.6906 20.5094 70.6606 20.5394 70.6005 20.5394H70.4203C70.3903 20.5394 70.3302 20.5094 70.3302 20.4493ZM70.9609 20.9899H71.2612C71.3212 20.9899 71.3813 21.0499 71.3813 21.11V21.4103C71.3813 21.4703 71.3212 21.5304 71.2612 21.5304H70.9609C70.9008 21.5304 70.8408 21.4703 70.8408 21.4103V21.11C70.8107 21.0499 70.8708 20.9899 70.9609 20.9899ZM70.9308 19.098V18.9178C70.9308 18.8878 70.9609 18.8277 71.0209 18.8277H71.2011C71.2312 18.8277 71.2912 18.8577 71.2912 18.9178V19.098C71.2912 19.128 71.2612 19.188 71.2011 19.188H71.0209C70.9609 19.188 70.9308 19.158 70.9308 19.098Z" fill="#29235C"/>
<path d="M71.1108 14.2932H70.5402C70.5402 14.2932 70.4201 14.2932 70.33 14.2032L70.1198 13.9929C70.0297 13.9029 70.0297 13.7827 70.0297 13.7827V13.2122C70.0297 13.062 69.9096 12.9419 69.7594 12.9419H69.1588C69.0087 12.9419 68.8885 13.062 68.8885 13.2122V13.8128C68.8885 13.9629 69.0087 14.083 69.1588 14.083H69.6994C69.6994 14.083 69.8195 14.083 69.9096 14.1731L70.1198 14.3833C70.2099 14.4734 70.2099 14.5935 70.2099 14.5935V15.1341C70.2099 15.2842 70.33 15.4044 70.4801 15.4044H71.0807C71.2309 15.4044 71.351 15.2842 71.351 15.1341V14.5335C71.381 14.4134 71.2609 14.2932 71.1108 14.2932Z" fill="#29235C"/>
<path d="M66.066 14.1126H66.6366C66.6366 14.1126 66.7567 14.1126 66.8468 14.2027L67.057 14.4129C67.1471 14.503 67.1471 14.6231 67.1471 14.6231V15.1937C67.1471 15.3438 67.2672 15.4639 67.4174 15.4639H68.018C68.1681 15.4639 68.2883 15.3438 68.2883 15.1937V14.5931C68.2883 14.4429 68.1681 14.3228 68.018 14.3228H67.4775C67.4775 14.3228 67.3573 14.3228 67.2672 14.2327L67.057 14.0225C66.9669 13.9324 66.9669 13.8123 66.9669 13.8123V13.2717C66.9669 13.1216 66.8468 13.0015 66.6967 13.0015H66.0961C65.9459 13.0015 65.8258 13.1216 65.8258 13.2717V13.8723C65.7958 13.9925 65.9159 14.1126 66.066 14.1126Z" fill="#29235C"/>
<path d="M68.6786 14.7141V15.2847C68.6786 15.2847 68.6786 15.4048 68.5885 15.4949L68.3783 15.7051C68.2882 15.7952 68.1681 15.7952 68.1681 15.7952H67.5975C67.4474 15.7952 67.3273 15.9153 67.3273 16.0655V16.6661C67.3273 16.8162 67.4474 16.9363 67.5975 16.9363H68.1981C68.3483 16.9363 68.4684 16.8162 68.4684 16.6661V16.1255C68.4684 16.1255 68.4684 16.0054 68.5585 15.9153L68.7687 15.7051C68.8588 15.615 68.9789 15.615 68.9789 15.615H69.5195C69.6696 15.615 69.7897 15.4949 69.7897 15.3447V14.7441C69.7897 14.594 69.6696 14.4739 69.5195 14.4739H68.9189C68.7987 14.4438 68.6786 14.564 68.6786 14.7141Z" fill="#29235C"/>
<path d="M51.9813 13.2114H53.4228V13.5117H52.8522V15.794H52.5519V13.5117H51.9813V13.2114Z" fill="#29235C"/>
<path d="M53.7534 15.7947V13.1821H54.0537V13.4824H54.354V13.8128H54.0537V15.7947H53.7534ZM54.324 14.4134V13.8428H54.6243V14.4134H54.9246V14.7437H54.6243V14.4134H54.324ZM54.9246 13.8428H55.2249V14.4134H54.9246V13.8428ZM55.4952 15.7947V13.8128H55.1949V13.4824H55.4952V13.1821H55.7955V15.7947H55.4952Z" fill="#29235C"/>
<path d="M15.7656 15.855H13.0929H12.5223H8.82861V22.7619H10.4202V17.4766H12.0118V22.7619H13.6034V17.4766H15.195V22.7619H16.7866V16.9361H15.7355V15.855H15.7656ZM21.5914 15.855V16.906H20.5403V22.7619H22.1319V17.4766H23.9938V15.855H21.5914ZM17.8677 22.7619H19.4593V15.855H17.8677V22.7619Z" fill="#29235C"/>
<path d="M38.8587 15.855H36.186H35.5854H31.9518V22.7619H33.5434V17.4766H35.135V22.7619H36.7266V17.4766H38.3182V22.7619H39.9097V16.9361H38.8587V15.855Z" fill="#29235C"/>
<path d="M45.1951 15.854H42.0419V16.9051H40.9608V21.6798H42.0119V22.7309H46.156V21.1393H42.5524V20.0882H46.2461V16.9351H45.1951V15.854ZM42.5824 17.4456H44.6845V18.5267H42.5824V17.4456Z" fill="#29235C"/>
<path d="M51.5615 15.854H48.4084V16.9051H47.3573V21.6798H48.4084V22.7309H52.5525V21.1393H48.9489V20.0882H52.6426V16.9351H51.5915V15.854H51.5615ZM48.9189 17.4456H51.021V18.5267H48.9189V17.4456Z" fill="#29235C"/>
<path d="M19.4593 13.2124H17.8677V14.804H19.4593V13.2124Z" fill="#29235C"/>
<path d="M29.2792 21.2304H26.6365V15.855H25.0449V21.7108H26.096V22.7619H29.7596H30.8708V21.7108V15.855H29.2792V21.2304Z" fill="#29235C"/>
<path d="M61.2011 8.58838H60.2101H0.119995V29.9998H60.2101H61.2011H81.7117V8.58838H61.2011ZM60.2101 29.0388H1.11099V9.6094H60.2101V29.0388ZM80.7207 29.0388H61.2011V9.6094H80.7207V29.0388Z" fill="#29235C"/>
</svg>
