<svg width="175" height="60" viewBox="0 0 175 60" fill="none" xmlns="http://www.w3.org/2000/svg">
<path d="M9.28165 0.226074L0 9.60459H46.9891L56.2704 0.226074H9.28165Z" fill="#29235C"/>
<path d="M26.973 59.1125C38.5182 59.1125 41.4212 54.4704 41.4212 48.1116C41.4212 40.2897 34.362 38.8273 28.4904 37.8732C24.0041 37.11 21.9589 36.7287 21.9589 33.9944C21.9589 31.9595 23.7401 31.1963 26.6432 31.1963C30.2058 31.1963 31.1952 32.2139 31.5253 35.2025L40.8935 33.8036C40.1014 27.3809 36.473 24.1377 26.9069 24.1377C16.4175 24.1377 12.723 28.3347 12.723 35.0116C12.6572 43.6603 20.8377 44.5502 26.9069 45.5674C30.6672 46.2675 32.1192 46.9028 32.1192 49.3831C32.1192 51.4183 30.8657 52.3085 27.1048 52.3085C22.9486 52.3085 21.6952 51.6091 21.1675 48.2386L12.0634 49.5739C12.9209 56.3782 16.9452 59.1125 26.973 59.1125Z" fill="#29235C"/>
<path d="M57.171 52.1178C52.7505 52.1178 51.1676 51.1637 51.1676 47.9843C51.1676 45.1227 52.7505 43.9781 57.5008 43.9781H62.2508V47.2848C62.2508 50.4642 60.6676 52.1178 57.171 52.1178ZM53.0806 59.1125C58.2265 59.1125 60.5357 57.459 62.1851 55.0425V58.6674H71.4868V35.6476C71.4868 27.9531 68.518 24.0742 58.2265 24.0742C48.2645 24.0742 44.7683 26.872 43.3827 33.7398L52.619 35.139C53.2125 32.2139 54.0703 31.3233 57.8967 31.3233C61.5912 31.3233 62.1851 32.8495 62.1851 35.3933V37.7463H57.8306C46.0217 37.7463 41.9971 41.3073 41.9971 48.5564C41.9971 55.6785 45.6258 59.1125 53.0806 59.1125Z" fill="#29235C"/>
<path d="M73.8621 58.6672H83.3623V9.60474L73.8621 18.9829V58.6672Z" fill="#29235C"/>
<path d="M94.9733 37.9368V36.2201C94.9733 33.2315 96.3589 31.1963 100.515 31.1963C104.539 31.1963 105.859 32.9133 105.859 36.2201V37.9368H94.9733ZM100.515 59.1763C111.467 59.1763 114.369 54.0891 115.029 49.0018L105.991 47.6664C105.595 50.7185 105.001 52.3086 100.515 52.3086C95.9633 52.3086 94.9733 50.0826 94.9733 47.1578V44.3597H115.029V38.2549C115.029 29.7339 111.664 24.0742 100.515 24.0742C89.4979 24.0742 85.7373 29.7974 85.7373 37.0468V46.2037C85.7373 53.2626 89.5637 59.1763 100.515 59.1763Z" fill="#29235C"/>
<path d="M132.644 59.1763C143.529 59.1763 148.015 53.644 148.015 46.2037V37.0468C148.015 29.4796 143.529 24.0742 132.644 24.0742C121.758 24.0742 117.404 29.4796 117.404 37.0468V46.2037C117.404 53.644 121.692 59.1763 132.644 59.1763ZM132.644 51.7999C128.817 51.7999 126.904 49.8286 126.904 46.6492V36.8563C126.904 33.6131 128.817 31.6418 132.644 31.6418C136.47 31.6418 138.515 33.6131 138.515 36.8563V46.6492C138.515 49.8286 136.47 51.7999 132.644 51.7999Z" fill="#29235C"/>
<path fill-rule="evenodd" clip-rule="evenodd" d="M164.982 33.7799H159.89V58.4694H150.39V33.7799L159.671 24.4014H174.263L164.982 33.7799Z" fill="#29235C"/>
</svg>
