<svg width="139" height="108" fill="none" xmlns="http://www.w3.org/2000/svg"><path d="M138.857 0H0v108h138.857V0z" fill="#F5E7D3"/><path d="M131.143 7.714H7.714v77.143h123.429V7.714z" fill="#C63939"/><path fill="#F5E7D3" d="M15.429 15.429v7.714h42.429v-7.714z"/><path fill-rule="evenodd" clip-rule="evenodd" d="M92.572 15.428h7.714v19.286h23.143v7.714H92.572v-27zM123.429 50.143v27h-7.715v-7.715h-15.428v7.715h-7.715v-27h30.858zm-7.715 11.571v-3.857h-15.428v3.857h15.428zM38.572 30.857h7.714v46.286H15.429v-7.715h23.143V59.65a15.357 15.357 0 01-7.715 2.064c-8.52 0-15.428-6.907-15.428-15.428 0-8.522 6.907-15.43 15.428-15.43 2.81 0 5.445.752 7.715 2.065v-2.064zM30.857 54a7.714 7.714 0 100-15.429 7.714 7.714 0 000 15.429zM84.857 15.428H65.571v15.915C58.917 33.056 54 39.096 54 46.285c0 7.19 4.917 13.23 11.571 14.943v8.2H54v7.715h30.857v-7.715H73.286v-8.2c6.654-1.713 11.571-7.754 11.571-14.943s-4.917-13.23-11.571-14.942v-8.2h11.571v-7.715zM69.43 54a7.714 7.714 0 100-15.429 7.714 7.714 0 000 15.429z" fill="#F5E7D3"/><path d="M10.665 96.198h3.146v1.196c0 1.566-.394 2.295-3.087 2.295-2.694 0-3.088-.821-3.088-3.345 0-2.504.394-3.345 3.088-3.345 2.693 0 3.087.793 3.087 2.198h-1.425c0-.978-.238-1.245-1.662-1.245-1.425 0-1.663.219-1.663 2.392 0 2.188.238 2.392 1.663 2.392 1.424 0 1.662-.2 1.662-1.337v-.238h-1.72v-.963zM19.68 93.09c1.755 0 2.553.84 2.553 2.007 0 .671-.287 1.265-.924 1.493v.097c.642.248.924.7.924 1.425v1.473h-1.425v-1.522c0-.476-.141-1.05-1.07-1.05h-2.134v2.582h-1.425v-6.5h3.5v-.006zm-.058 2.965c.923 0 1.186-.335 1.186-.958 0-.622-.263-1.05-1.186-1.05h-2.018v2.008h2.018zM26.798 93.045h1.541l2.553 6.214v.335h-1.303l-.545-1.337h-2.942l-.544 1.337h-1.303v-.335l2.543-6.214zm.715 1.337l-.297 1.1-.734 1.818h2.183l-.734-1.819-.302-1.099h-.117zM36.527 93.09c1.755 0 2.552.792 2.552 2.105 0 1.298-.797 2.105-2.552 2.105H34.45v2.295h-1.424v-6.5h3.5v-.006zm-.059 3.252c.924 0 1.187-.384 1.187-1.147 0-.764-.263-1.148-1.187-1.148H34.45v2.295h2.018zM42.872 96.77v2.82h-1.425v-6.5h1.425v2.722h3.087V93.09h1.425v6.501h-1.425v-2.82h-3.087zM56.116 101.331a7.812 7.812 0 01-1.517.17c-1.235 0-2.421-.613-2.47-1.838-2.052-.15-2.373-1.04-2.373-3.326 0-2.504.394-3.345 3.088-3.345 2.693 0 3.087.841 3.087 3.345 0 2.285-.32 3.175-2.372 3.326.034.715.602.87 1.327.87.37 0 .758-.048 1.07-.117l.16.915zm-3.277-2.694c1.366 0 1.6-.2 1.6-2.295 0-2.076-.239-2.295-1.6-2.295-1.366 0-1.6.219-1.6 2.295 0 2.096.239 2.295 1.6 2.295zM58.533 99.594v-6.5h1.424v5.547h2.728v-1.244h1.424v2.197h-5.576zM77.339 93.045h1.541l2.553 6.214v.335H80.13l-.545-1.337h-2.941l-.545 1.337h-1.303v-.335l2.543-6.214zm.71 1.337l-.297 1.1-.734 1.818H79.2l-.734-1.819-.297-1.099h-.121zM84.87 97.3c0 1.234.239 1.434 1.663 1.434 1.425 0 1.663-.2 1.663-.861 0-1.337-4.687-.671-4.687-2.966 0-1.07.69-1.91 3.024-1.91 2.577 0 3.025.743 3.025 2.391h-1.425c0-1.215-.238-1.434-1.6-1.434-1.308 0-1.6.219-1.6.958 0 1.245 4.688.574 4.688 2.868 0 1.09-.394 1.911-3.083 1.911-2.694 0-3.087-.724-3.087-2.392h1.42zM95.669 94.047v4.59h1.78v.958h-4.984v-.958h1.78v-4.59h-1.78v-.958h4.983v.958H95.67zM102.607 93.045h1.542l2.552 6.214v.335h-1.308l-.544-1.337h-2.942l-.544 1.337h-1.303v-.335l2.547-6.214zm.715 1.337l-.297 1.1-.734 1.818h2.183l-.734-1.819-.296-1.099h-.122zM112.516 93.09v2.197h-.948l-.476-1.05v-1.148h1.424zM121.885 98.637v-.958h1.425v1.91h-6.17v-1.53c0-2.296 4.687-1.77 4.687-3.156 0-.735-.297-.958-1.6-.958-1.366 0-1.599.219-1.599 1.434h-1.425c0-1.643.452-2.392 3.024-2.392 2.339 0 3.025.841 3.025 1.91 0 2.432-4.688 1.722-4.688 3.254v.476h3.321v.01zM129.363 93.045v5.591h1.78v.958h-4.984v-.957h1.78v-4.493l-1.78.287v-.958l2.256-.433h.948v.005z" fill="#C63939"/></svg>